<svg xmlns="http://www.w3.org/2000/svg" width="1200" height="846" viewBox="0 0 1200 846">
<style>
text{font-family:-apple-system,BlinkMacSystemFont,'Segoe UI',Arial,sans-serif;fill:#18212F}
.title{font-size:23px;font-weight:600}.panel{font-size:16px;font-weight:600}
.axis{font-size:13px}.legend{font-size:14px}.footer{font-size:11px;fill:#586173}
.grid-major{stroke:#D4D9E2;stroke-width:1}.grid-minor{stroke:#E9ECF1;stroke-width:.7}
.axis-line{stroke:#4B5563;stroke-width:1.1}
</style>
<rect width="100%" height="100%" fill="#FFFFFF"/>
<text x="112" y="36" class="title">Espectros com tom de 1 kHz</text>
<line x1="112" y1="72" x2="150" y2="72" stroke="#2F3B52" stroke-width="3"/>
<text x="160" y="77" class="legend">Reguladores da EVAL</text>
<line x1="357.9" y1="72" x2="395.9" y2="72" stroke="#0072B2" stroke-width="3" stroke-dasharray="9 6"/>
<text x="405.9" y="77" class="legend">VDD do Tiresias</text>
<line x1="571.4" y1="72" x2="609.4" y2="72" stroke="#D55E00" stroke-width="3" stroke-dasharray="11 5 2 5"/>
<text x="619.4" y="77" class="legend">AVDD do Tiresias</text>
<clipPath id="clip-0"><rect x="112" y="112" width="1052" height="285"/></clipPath>
<text x="112" y="98" class="panel">Entrada −10 dBV</text>
<line x1="112.00" y1="112" x2="112.00" y2="397" class="grid-major"/>
<line x1="249.65" y1="112" x2="249.65" y2="397" class="grid-minor"/>
<line x1="353.77" y1="112" x2="353.77" y2="397" class="grid-major"/>
<line x1="457.89" y1="112" x2="457.89" y2="397" class="grid-minor"/>
<line x1="595.54" y1="112" x2="595.54" y2="397" class="grid-minor"/>
<line x1="699.66" y1="112" x2="699.66" y2="397" class="grid-major"/>
<line x1="803.79" y1="112" x2="803.79" y2="397" class="grid-minor"/>
<line x1="941.43" y1="112" x2="941.43" y2="397" class="grid-minor"/>
<line x1="1045.56" y1="112" x2="1045.56" y2="397" class="grid-major"/>
<line x1="1149.68" y1="112" x2="1149.68" y2="397" class="grid-minor"/>
<line x1="112" y1="365.33" x2="1164" y2="365.33" class="grid-major"/>
<text x="100" y="369.33" text-anchor="end" class="axis">-120</text>
<line x1="112" y1="323.11" x2="1164" y2="323.11" class="grid-major"/>
<text x="100" y="327.11" text-anchor="end" class="axis">-100</text>
<line x1="112" y1="280.89" x2="1164" y2="280.89" class="grid-major"/>
<text x="100" y="284.89" text-anchor="end" class="axis">-80</text>
<line x1="112" y1="238.67" x2="1164" y2="238.67" class="grid-major"/>
<text x="100" y="242.67" text-anchor="end" class="axis">-60</text>
<line x1="112" y1="196.44" x2="1164" y2="196.44" class="grid-major"/>
<text x="100" y="200.44" text-anchor="end" class="axis">-40</text>
<line x1="112" y1="154.22" x2="1164" y2="154.22" class="grid-major"/>
<text x="100" y="158.22" text-anchor="end" class="axis">-20</text>
<line x1="112" y1="112.00" x2="1164" y2="112.00" class="grid-major"/>
<text x="100" y="116.00" text-anchor="end" class="axis">0</text>
<line x1="112" y1="397" x2="1164" y2="397" class="axis-line"/>
<line x1="112" y1="112" x2="112" y2="397" class="axis-line"/>
<text x="28" y="254.5" text-anchor="middle" transform="rotate(-90 28 254.5)" class="axis">Magnitude espectral (dBV)</text>
<polyline points="114.17,314.87 118.51,312.33 122.85,315.77 127.18,317.59 131.52,319.20 135.86,319.65 140.20,320.91 144.54,317.22 148.88,320.11 153.22,315.49 157.55,320.46 161.89,321.69 166.23,319.63 170.57,312.47 174.91,316.08 179.25,322.94 183.59,320.39 187.92,327.16 192.26,320.52 196.60,318.91 200.94,326.98 205.28,316.54 209.62,320.15 213.96,311.73 218.29,264.08 222.63,320.12 226.97,325.77 231.31,331.05 235.65,329.48 239.99,332.64 244.32,331.87 248.66,330.83 253.00,329.81 257.34,333.08 261.68,331.13 266.02,335.85 270.36,338.87 274.69,332.94 279.03,330.05 283.37,336.10 287.71,335.47 292.05,337.46 296.39,337.46 300.73,336.18 305.06,333.28 309.40,331.94 313.74,332.68 318.08,280.83 322.42,331.99 326.76,330.51 331.10,333.35 335.43,335.58 339.77,331.43 344.11,335.36 348.45,338.44 352.79,332.41 357.13,336.17 361.46,342.02 365.80,341.28 370.14,344.27 374.48,342.10 378.82,331.12 383.16,331.52 387.50,344.89 391.83,341.41 396.17,344.54 400.51,339.54 404.85,335.28 409.19,339.99 413.53,338.28 417.87,339.13 422.20,336.90 426.54,295.04 430.88,341.25 435.22,339.91 439.56,342.17 443.90,341.51 448.24,341.65 452.57,341.15 456.91,298.78 461.25,337.77 465.59,340.38 469.93,342.31 474.27,339.41 478.61,342.16 482.94,342.40 487.28,341.32 491.62,342.28 495.96,340.69 500.30,339.83 504.64,341.33 508.97,302.90 513.31,343.97 517.65,342.31 521.99,347.38 526.33,305.32 530.67,340.02 535.01,341.65 539.34,341.62 543.68,344.31 548.02,339.58 552.36,341.95 556.70,342.07 561.04,306.66 565.38,341.46 569.71,343.42 574.05,308.92 578.39,341.20 582.73,341.84 587.07,343.62 591.41,341.94 595.75,340.87 600.08,309.24 604.42,344.23 608.76,344.36 613.10,311.65 617.44,343.28 621.78,341.30 626.11,343.01 630.45,330.10 634.79,312.52 639.13,343.54 643.47,313.48 647.81,342.84 652.15,343.04 656.48,312.64 660.82,343.06 665.16,315.61 669.50,342.70 673.84,343.21 678.18,342.03 682.52,315.39 686.85,317.09 691.19,298.61 695.53,341.83 699.87,170.36 704.21,318.15 708.55,343.46 712.89,342.84 717.22,316.99 721.56,320.07 725.90,343.58 730.24,317.43 734.58,308.99 738.92,343.59 743.25,343.15 747.59,318.44 751.93,322.32 756.27,343.25 760.61,314.85 764.95,342.84 769.29,320.01 773.62,323.98 777.96,344.28 782.30,316.87 786.64,341.21 790.98,321.43 795.32,317.77 799.66,321.75 803.99,326.65 808.33,322.49 812.67,327.20 817.01,323.05 821.35,328.34 825.69,324.06 830.03,328.91 834.36,321.09 838.70,323.57 843.04,330.52 847.38,325.76 851.72,330.97 856.06,318.97 860.39,325.18 864.73,325.06 869.07,330.45 873.41,325.18 877.75,325.62 882.09,328.90 886.43,334.75 890.76,326.97 895.10,327.54 899.44,323.47 903.78,329.00 908.12,329.39 912.46,330.11 916.80,330.52 921.13,328.40 925.47,332.13 929.81,330.54 934.15,333.21 938.49,330.05 942.83,332.72 947.17,335.71 951.50,335.84 955.84,333.35 960.18,329.57 964.52,338.04 968.86,335.53 973.20,339.75 977.54,336.81 981.87,338.69 986.21,341.54 990.55,337.44 994.89,340.86 999.23,343.34 1003.57,340.61 1007.90,342.84 1012.24,341.26 1016.58,344.42 1020.92,345.13 1025.26,345.00 1029.60,345.49 1033.94,345.54 1038.27,345.87 1042.61,345.50 1046.95,345.86 1051.29,345.38 1055.63,345.48 1059.97,345.35 1064.31,344.96 1068.64,345.16 1072.98,344.62 1077.32,344.49 1081.66,344.87 1086.00,344.92 1090.34,345.05 1094.68,344.55 1099.01,345.04 1103.35,345.07 1107.69,345.47 1112.03,345.83 1116.37,344.08 1120.71,346.18 1125.04,346.20 1129.38,346.45 1133.72,346.08 1138.06,346.48 1142.40,345.96 1146.74,345.91 1151.08,346.11 1155.41,346.25 1159.75,346.33" fill="none" stroke="#2F3B52" stroke-width="2.2" stroke-linejoin="round" stroke-linecap="round" clip-path="url(#clip-0)"/>
<polyline points="114.17,307.24 118.51,320.09 122.85,326.12 127.18,323.42 131.52,320.45 135.86,322.55 140.20,327.79 144.54,323.20 148.88,329.77 153.22,325.90 157.55,326.26 161.89,326.13 166.23,326.09 170.57,328.16 174.91,324.81 179.25,329.84 183.59,323.02 187.92,333.00 192.26,330.87 196.60,320.78 200.94,318.26 205.28,324.28 209.62,312.33 213.96,277.22 218.29,273.48 222.63,309.30 226.97,321.54 231.31,324.33 235.65,327.04 239.99,335.25 244.32,333.08 248.66,336.48 253.00,334.54 257.34,332.36 261.68,339.91 266.02,334.92 270.36,341.70 274.69,334.74 279.03,332.03 283.37,339.32 287.71,341.79 292.05,337.72 296.39,337.24 300.73,339.52 305.06,340.53 309.40,332.39 313.74,332.03 318.08,287.81 322.42,301.66 326.76,333.27 331.10,338.54 335.43,339.07 339.77,340.41 344.11,340.88 348.45,342.30 352.79,331.44 357.13,344.13 361.46,346.51 365.80,345.13 370.14,344.24 374.48,343.19 378.82,326.84 383.16,323.14 387.50,339.70 391.83,347.89 396.17,345.52 400.51,341.46 404.85,337.05 409.19,345.51 413.53,345.50 417.87,341.70 422.20,321.27 426.54,300.96 430.88,341.54 435.22,343.55 439.56,346.66 443.90,342.87 448.24,345.86 452.57,340.88 456.91,303.83 461.25,345.56 465.59,344.84 469.93,342.48 474.27,337.98 478.61,343.92 482.94,343.03 487.28,331.68 491.62,343.19 495.96,341.36 500.30,345.04 504.64,344.40 508.97,307.51 513.31,346.55 517.65,345.94 521.99,347.54 526.33,313.75 530.67,320.54 535.01,346.08 539.34,342.69 543.68,346.22 548.02,335.21 552.36,344.48 556.70,346.51 561.04,312.16 565.38,346.70 569.71,347.14 574.05,325.39 578.39,316.46 582.73,345.19 587.07,346.72 591.41,336.89 595.75,344.02 600.08,314.02 604.42,345.09 608.76,346.56 613.10,316.25 617.44,344.42 621.78,337.79 626.11,345.00 630.45,325.93 634.79,319.69 639.13,344.95 643.47,318.54 647.81,345.07 652.15,340.78 656.48,318.15 660.82,343.84 665.16,320.24 669.50,344.58 673.84,341.50 678.18,341.54 682.52,319.93 686.85,321.87 691.19,298.85 695.53,339.65 699.87,170.35 704.21,323.09 708.55,346.16 712.89,340.86 717.22,322.04 721.56,324.47 725.90,340.94 730.24,322.30 734.58,310.40 738.92,344.36 743.25,341.65 747.59,323.14 751.93,326.56 756.27,341.12 760.61,319.84 764.95,342.42 769.29,324.92 773.62,328.22 777.96,343.19 782.30,325.65 786.64,329.14 790.98,326.23 795.32,318.99 799.66,326.60 803.99,330.70 808.33,327.32 812.67,331.30 817.01,327.79 821.35,332.25 825.69,329.06 830.03,332.36 834.36,325.62 838.70,328.23 843.04,332.98 847.38,329.86 851.72,334.74 856.06,321.51 860.39,331.08 864.73,328.58 869.07,332.83 873.41,329.39 877.75,329.76 882.09,333.50 886.43,337.85 890.76,331.22 895.10,331.81 899.44,325.62 903.78,332.70 908.12,333.30 912.46,334.06 916.80,334.65 921.13,330.89 925.47,335.61 929.81,333.51 934.15,336.52 938.49,333.62 942.83,335.10 947.17,338.86 951.50,338.79 955.84,336.09 960.18,330.12 964.52,340.66 968.86,337.86 973.20,341.30 977.54,339.35 981.87,340.39 986.21,343.12 990.55,339.38 994.89,342.35 999.23,345.11 1003.57,342.81 1007.90,344.52 1012.24,342.18 1016.58,345.87 1020.92,346.21 1025.26,346.59 1029.60,347.55 1033.94,347.36 1038.27,347.80 1042.61,348.12 1046.95,348.19 1051.29,347.77 1055.63,348.28 1059.97,347.69 1064.31,347.59 1068.64,347.95 1072.98,347.34 1077.32,346.92 1081.66,347.14 1086.00,346.85 1090.34,347.21 1094.68,346.61 1099.01,346.72 1103.35,347.51 1107.69,346.96 1112.03,347.69 1116.37,345.77 1120.71,347.72 1125.04,347.89 1129.38,348.20 1133.72,347.93 1138.06,348.10 1142.40,348.40 1146.74,348.17 1151.08,348.53 1155.41,348.36 1159.75,348.66" fill="none" stroke="#0072B2" stroke-width="2.2" stroke-linejoin="round" stroke-linecap="round" clip-path="url(#clip-0)" stroke-dasharray="9 6"/>
<polyline points="114.17,309.28 118.51,318.17 122.85,324.60 127.18,327.69 131.52,327.65 135.86,325.79 140.20,334.25 144.54,322.56 148.88,328.20 153.22,326.84 157.55,325.77 161.89,324.80 166.23,324.07 170.57,330.41 174.91,330.18 179.25,330.08 183.59,336.32 187.92,324.95 192.26,325.46 196.60,325.32 200.94,317.26 205.28,322.60 209.62,317.13 213.96,282.22 218.29,271.00 222.63,315.38 226.97,319.91 231.31,319.25 235.65,326.14 239.99,333.83 244.32,338.22 248.66,339.78 253.00,339.06 257.34,338.88 261.68,337.44 266.02,338.96 270.36,342.06 274.69,335.02 279.03,335.48 283.37,342.78 287.71,339.09 292.05,336.75 296.39,337.60 300.73,339.20 305.06,338.81 309.40,331.93 313.74,331.83 318.08,285.78 322.42,310.33 326.76,329.73 331.10,338.03 335.43,341.63 339.77,338.45 344.11,339.48 348.45,341.46 352.79,330.27 357.13,344.98 361.46,343.45 365.80,342.98 370.14,340.78 374.48,343.72 378.82,342.32 383.16,345.00 387.50,344.53 391.83,345.29 396.17,345.28 400.51,341.66 404.85,333.46 409.19,340.83 413.53,344.17 417.87,341.18 422.20,328.02 426.54,299.90 430.88,342.65 435.22,344.25 439.56,347.53 443.90,342.05 448.24,344.73 452.57,342.30 456.91,303.67 461.25,340.95 465.59,344.98 469.93,344.08 474.27,342.68 478.61,343.83 482.94,347.09 487.28,345.43 491.62,344.78 495.96,338.76 500.30,346.40 504.64,341.47 508.97,307.50 513.31,344.49 517.65,344.16 521.99,346.48 526.33,310.83 530.67,328.03 535.01,345.60 539.34,343.64 543.68,348.83 548.02,348.04 552.36,342.64 556.70,343.90 561.04,311.59 565.38,343.51 569.71,345.36 574.05,318.99 578.39,319.47 582.73,342.66 587.07,345.90 591.41,346.03 595.75,342.60 600.08,313.74 604.42,344.44 608.76,346.25 613.10,316.54 617.44,345.20 621.78,348.19 626.11,345.52 630.45,328.26 634.79,318.79 639.13,345.18 643.47,318.35 647.81,346.42 652.15,345.17 656.48,317.61 660.82,343.96 665.16,319.94 669.50,344.26 673.84,349.00 678.18,342.96 682.52,319.57 686.85,321.51 691.19,298.97 695.53,346.04 699.87,170.36 704.21,323.05 708.55,346.30 712.89,346.01 717.22,321.24 721.56,324.26 725.90,345.79 730.24,321.89 734.58,310.52 738.92,344.60 743.25,346.20 747.59,323.28 751.93,326.39 756.27,345.46 760.61,319.80 764.95,345.89 769.29,324.23 773.62,328.07 777.96,345.77 782.30,325.08 786.64,329.44 790.98,326.17 795.32,319.42 799.66,326.44 803.99,330.64 808.33,327.01 812.67,331.63 817.01,327.63 821.35,332.39 825.69,328.78 830.03,333.21 834.36,325.58 838.70,327.62 843.04,334.09 847.38,330.19 851.72,335.56 856.06,321.15 860.39,331.53 864.73,328.27 869.07,333.28 873.41,329.59 877.75,329.86 882.09,333.03 886.43,338.31 890.76,331.45 895.10,332.04 899.44,325.90 903.78,333.28 908.12,333.44 912.46,334.50 916.80,334.86 921.13,331.11 925.47,335.81 929.81,333.25 934.15,337.23 938.49,333.88 942.83,335.42 947.17,338.64 951.50,339.51 955.84,336.45 960.18,330.59 964.52,340.76 968.86,338.37 973.20,341.99 977.54,339.77 981.87,340.78 986.21,343.42 990.55,339.31 994.89,342.59 999.23,345.20 1003.57,342.04 1007.90,344.99 1012.24,342.04 1016.58,346.04 1020.92,346.46 1025.26,346.66 1029.60,347.01 1033.94,347.58 1038.27,347.51 1042.61,347.61 1046.95,347.52 1051.29,347.44 1055.63,347.55 1059.97,347.01 1064.31,346.78 1068.64,347.12 1072.98,346.12 1077.32,346.41 1081.66,346.63 1086.00,346.16 1090.34,346.52 1094.68,346.07 1099.01,346.45 1103.35,346.83 1107.69,346.49 1112.03,347.46 1116.37,345.40 1120.71,347.52 1125.04,347.74 1129.38,347.68 1133.72,347.54 1138.06,347.53 1142.40,347.40 1146.74,347.21 1151.08,347.63 1155.41,347.65 1159.75,347.88" fill="none" stroke="#D55E00" stroke-width="2.2" stroke-linejoin="round" stroke-linecap="round" clip-path="url(#clip-0)" stroke-dasharray="11 5 2 5"/>
<clipPath id="clip-1"><rect x="112" y="451" width="1052" height="285"/></clipPath>
<text x="112" y="437" class="panel">Entrada −6 dBV</text>
<line x1="112.00" y1="451" x2="112.00" y2="736" class="grid-major"/>
<text x="112.00" y="760" text-anchor="middle" class="axis">20</text>
<line x1="249.65" y1="451" x2="249.65" y2="736" class="grid-minor"/>
<text x="249.65" y="760" text-anchor="middle" class="axis">50</text>
<line x1="353.77" y1="451" x2="353.77" y2="736" class="grid-major"/>
<text x="353.77" y="760" text-anchor="middle" class="axis">100</text>
<line x1="457.89" y1="451" x2="457.89" y2="736" class="grid-minor"/>
<text x="457.89" y="760" text-anchor="middle" class="axis">200</text>
<line x1="595.54" y1="451" x2="595.54" y2="736" class="grid-minor"/>
<text x="595.54" y="760" text-anchor="middle" class="axis">500</text>
<line x1="699.66" y1="451" x2="699.66" y2="736" class="grid-major"/>
<text x="699.66" y="760" text-anchor="middle" class="axis">1k</text>
<line x1="803.79" y1="451" x2="803.79" y2="736" class="grid-minor"/>
<text x="803.79" y="760" text-anchor="middle" class="axis">2k</text>
<line x1="941.43" y1="451" x2="941.43" y2="736" class="grid-minor"/>
<text x="941.43" y="760" text-anchor="middle" class="axis">5k</text>
<line x1="1045.56" y1="451" x2="1045.56" y2="736" class="grid-major"/>
<text x="1045.56" y="760" text-anchor="middle" class="axis">10k</text>
<line x1="1149.68" y1="451" x2="1149.68" y2="736" class="grid-minor"/>
<text x="1149.68" y="760" text-anchor="middle" class="axis">20k</text>
<line x1="112" y1="704.33" x2="1164" y2="704.33" class="grid-major"/>
<text x="100" y="708.33" text-anchor="end" class="axis">-120</text>
<line x1="112" y1="662.11" x2="1164" y2="662.11" class="grid-major"/>
<text x="100" y="666.11" text-anchor="end" class="axis">-100</text>
<line x1="112" y1="619.89" x2="1164" y2="619.89" class="grid-major"/>
<text x="100" y="623.89" text-anchor="end" class="axis">-80</text>
<line x1="112" y1="577.67" x2="1164" y2="577.67" class="grid-major"/>
<text x="100" y="581.67" text-anchor="end" class="axis">-60</text>
<line x1="112" y1="535.44" x2="1164" y2="535.44" class="grid-major"/>
<text x="100" y="539.44" text-anchor="end" class="axis">-40</text>
<line x1="112" y1="493.22" x2="1164" y2="493.22" class="grid-major"/>
<text x="100" y="497.22" text-anchor="end" class="axis">-20</text>
<line x1="112" y1="451.00" x2="1164" y2="451.00" class="grid-major"/>
<text x="100" y="455.00" text-anchor="end" class="axis">0</text>
<line x1="112" y1="736" x2="1164" y2="736" class="axis-line"/>
<line x1="112" y1="451" x2="112" y2="736" class="axis-line"/>
<text x="28" y="593.5" text-anchor="middle" transform="rotate(-90 28 593.5)" class="axis">Magnitude espectral (dBV)</text>
<polyline points="114.17,650.08 118.51,652.77 122.85,654.83 127.18,649.54 131.52,658.18 135.86,653.85 140.20,656.99 144.54,659.35 148.88,661.23 153.22,653.53 157.55,657.25 161.89,657.49 166.23,657.80 170.57,652.08 174.91,654.29 179.25,659.15 183.59,661.02 187.92,656.98 192.26,654.30 196.60,660.17 200.94,652.65 205.28,657.77 209.62,646.93 213.96,630.82 218.29,594.61 222.63,638.97 226.97,654.89 231.31,663.30 235.65,660.93 239.99,662.96 244.32,665.86 248.66,663.84 253.00,666.53 257.34,662.91 261.68,668.82 266.02,668.44 270.36,673.80 274.69,668.99 279.03,668.17 283.37,675.57 287.71,672.09 292.05,669.60 296.39,668.56 300.73,667.68 305.06,669.75 309.40,666.86 313.74,662.59 318.08,611.36 322.42,652.64 326.76,664.35 331.10,669.57 335.43,670.77 339.77,669.87 344.11,670.22 348.45,676.99 352.79,667.21 357.13,675.74 361.46,679.09 365.80,676.36 370.14,677.21 374.48,680.76 378.82,661.23 383.16,660.72 387.50,679.75 391.83,680.65 396.17,675.45 400.51,680.10 404.85,671.81 409.19,676.77 413.53,677.28 417.87,672.45 422.20,662.67 426.54,625.46 430.88,675.62 435.22,678.30 439.56,678.01 443.90,679.26 448.24,677.32 452.57,676.25 456.91,629.53 461.25,676.32 465.59,677.49 469.93,678.24 474.27,677.35 478.61,682.27 482.94,678.99 487.28,673.27 491.62,685.62 495.96,675.53 500.30,678.50 504.64,675.64 508.97,633.09 513.31,676.67 517.65,679.78 521.99,680.40 526.33,636.23 530.67,672.28 535.01,679.87 539.34,677.40 543.68,683.02 548.02,671.82 552.36,679.76 556.70,678.94 561.04,637.02 565.38,677.28 569.71,679.80 574.05,639.94 578.39,671.52 582.73,679.04 587.07,682.17 591.41,675.98 595.75,678.64 600.08,639.56 604.42,678.58 608.76,679.87 613.10,642.89 617.44,678.30 621.78,676.73 626.11,679.52 630.45,660.81 634.79,642.87 639.13,677.84 643.47,645.56 647.81,681.22 652.15,677.00 656.48,642.83 660.82,676.92 665.16,647.30 669.50,680.01 673.84,679.92 678.18,675.78 682.52,646.00 686.85,649.13 691.19,637.56 695.53,678.24 699.87,500.91 704.21,650.79 708.55,681.26 712.89,678.77 717.22,648.06 721.56,652.18 725.90,680.05 730.24,647.21 734.58,646.11 738.92,680.99 743.25,679.10 747.59,648.93 751.93,655.14 756.27,676.89 760.61,646.33 764.95,679.08 769.29,650.55 773.62,657.46 777.96,680.15 782.30,648.68 786.64,674.08 790.98,652.04 795.32,654.44 799.66,652.83 803.99,660.71 808.33,653.74 812.67,662.05 817.01,654.39 821.35,662.70 825.69,655.32 830.03,663.90 834.36,653.74 838.70,656.30 843.04,665.27 847.38,658.00 851.72,666.33 856.06,653.85 860.39,658.73 864.73,658.22 869.07,666.62 873.41,658.39 877.75,659.55 882.09,662.61 886.43,671.10 890.76,661.14 895.10,662.10 899.44,659.67 903.78,663.71 908.12,664.38 912.46,665.19 916.80,665.64 921.13,664.75 925.47,667.19 929.81,666.66 934.15,669.08 938.49,665.44 942.83,668.65 947.17,671.23 951.50,672.20 955.84,669.13 960.18,666.71 964.52,674.02 968.86,671.15 973.20,675.61 977.54,673.24 981.87,674.35 986.21,677.88 990.55,674.22 994.89,676.84 999.23,680.50 1003.57,677.42 1007.90,679.62 1012.24,678.68 1016.58,681.32 1020.92,682.01 1025.26,682.82 1029.60,683.18 1033.94,682.95 1038.27,683.32 1042.61,683.33 1046.95,683.55 1051.29,683.54 1055.63,683.31 1059.97,683.27 1064.31,682.05 1068.64,683.03 1072.98,682.28 1077.32,682.16 1081.66,682.54 1086.00,682.72 1090.34,682.56 1094.68,682.49 1099.01,682.67 1103.35,683.34 1107.69,682.52 1112.03,682.99 1116.37,681.98 1120.71,683.50 1125.04,683.74 1129.38,684.25 1133.72,683.82 1138.06,684.14 1142.40,684.39 1146.74,683.98 1151.08,684.07 1155.41,683.87 1159.75,683.99" fill="none" stroke="#2F3B52" stroke-width="2.2" stroke-linejoin="round" stroke-linecap="round" clip-path="url(#clip-1)"/>
<polyline points="114.17,645.09 118.51,654.86 122.85,659.45 127.18,666.80 131.52,669.49 135.86,667.92 140.20,666.71 144.54,664.90 148.88,664.69 153.22,657.99 157.55,663.80 161.89,662.94 166.23,662.09 170.57,670.79 174.91,664.48 179.25,661.32 183.59,667.96 187.92,665.98 192.26,662.53 196.60,655.81 200.94,659.18 205.28,656.49 209.62,646.41 213.96,617.75 218.29,598.16 222.63,642.24 226.97,653.87 231.31,659.42 235.65,656.61 239.99,663.39 244.32,665.02 248.66,666.37 253.00,672.03 257.34,668.52 261.68,671.37 266.02,669.31 270.36,675.44 274.69,669.19 279.03,669.04 283.37,677.56 287.71,672.61 292.05,674.70 296.39,671.63 300.73,668.00 305.06,669.35 309.40,664.16 313.74,664.34 318.08,614.04 322.42,647.26 326.76,672.34 331.10,672.58 335.43,675.44 339.77,682.16 344.11,676.92 348.45,677.66 352.79,662.59 357.13,676.48 361.46,680.29 365.80,682.48 370.14,683.12 374.48,678.82 378.82,655.10 383.16,652.51 387.50,681.62 391.83,682.15 396.17,681.43 400.51,684.23 404.85,668.86 409.19,676.73 413.53,678.77 417.87,678.07 422.20,665.40 426.54,628.50 430.88,672.52 435.22,679.28 439.56,679.09 443.90,679.90 448.24,678.91 452.57,676.37 456.91,631.97 461.25,675.03 465.59,680.64 469.93,681.22 474.27,673.83 478.61,685.24 482.94,675.88 487.28,663.83 491.62,684.59 495.96,674.74 500.30,681.61 504.64,679.90 508.97,635.99 513.31,678.44 517.65,683.60 521.99,683.15 526.33,638.53 530.67,666.25 535.01,683.35 539.34,678.00 543.68,684.25 548.02,665.82 552.36,677.20 556.70,684.09 561.04,639.97 565.38,678.91 569.71,683.17 574.05,643.89 578.39,655.63 582.73,678.01 587.07,683.12 591.41,671.57 595.75,678.85 600.08,642.59 604.42,680.58 608.76,682.29 613.10,644.72 617.44,679.40 621.78,671.23 626.11,679.65 630.45,659.56 634.79,646.52 639.13,679.14 643.47,647.46 647.81,681.21 652.15,672.20 656.48,645.76 660.82,677.95 665.16,648.95 669.50,679.79 673.84,674.76 678.18,678.37 682.52,649.13 686.85,650.18 691.19,638.01 695.53,673.82 699.87,500.91 704.21,651.78 708.55,682.89 712.89,674.81 717.22,651.30 721.56,653.22 725.90,675.48 730.24,650.18 734.58,646.38 738.92,680.35 743.25,676.17 747.59,652.02 751.93,655.93 756.27,675.82 760.61,648.35 764.95,677.23 769.29,653.03 773.62,657.91 777.96,678.11 782.30,653.57 786.64,660.18 790.98,654.56 795.32,654.06 799.66,655.20 803.99,660.47 808.33,655.89 812.67,661.24 817.01,656.43 821.35,661.98 825.69,657.44 830.03,662.75 834.36,654.58 838.70,658.08 843.04,664.56 847.38,659.24 851.72,665.15 856.06,654.24 860.39,660.35 864.73,657.71 869.07,666.26 873.41,658.92 877.75,659.39 882.09,662.97 886.43,669.75 890.76,661.02 895.10,661.65 899.44,659.45 903.78,662.88 908.12,663.59 912.46,664.43 916.80,665.18 921.13,664.09 925.47,666.20 929.81,665.95 934.15,668.02 938.49,664.28 942.83,667.50 947.17,670.49 951.50,671.10 955.84,667.89 960.18,666.45 964.52,673.67 968.86,670.05 973.20,675.62 977.54,672.19 981.87,673.88 986.21,677.71 990.55,674.16 994.89,676.97 999.23,680.50 1003.57,677.67 1007.90,680.15 1012.24,679.06 1016.58,682.30 1020.92,682.90 1025.26,684.12 1029.60,684.28 1033.94,685.33 1038.27,685.41 1042.61,685.04 1046.95,685.58 1051.29,685.23 1055.63,685.24 1059.97,684.66 1064.31,684.29 1068.64,685.13 1072.98,683.54 1077.32,683.60 1081.66,683.67 1086.00,682.98 1090.34,683.94 1094.68,683.85 1099.01,683.37 1103.35,684.44 1107.69,684.09 1112.03,684.80 1116.37,683.30 1120.71,685.58 1125.04,685.54 1129.38,685.66 1133.72,685.52 1138.06,685.83 1142.40,685.56 1146.74,685.27 1151.08,685.23 1155.41,685.30 1159.75,685.25" fill="none" stroke="#0072B2" stroke-width="2.2" stroke-linejoin="round" stroke-linecap="round" clip-path="url(#clip-1)" stroke-dasharray="9 6"/>
<polyline points="114.17,622.34 118.51,658.24 122.85,661.64 127.18,652.41 131.52,654.02 135.86,657.14 140.20,657.79 144.54,660.03 148.88,659.74 153.22,657.33 157.55,661.89 161.89,659.03 166.23,657.62 170.57,657.91 174.91,655.18 179.25,656.82 183.59,659.24 187.92,655.11 192.26,659.96 196.60,655.29 200.94,655.30 205.28,651.38 209.62,642.75 213.96,591.66 218.29,616.68 222.63,650.08 226.97,655.02 231.31,659.44 235.65,662.56 239.99,662.44 244.32,665.67 248.66,665.18 253.00,668.79 257.34,668.79 261.68,675.67 266.02,671.29 270.36,676.14 274.69,674.35 279.03,668.95 283.37,672.80 287.71,669.62 292.05,671.69 296.39,670.59 300.73,671.15 305.06,669.37 309.40,667.41 313.74,663.36 318.08,626.06 322.42,609.79 326.76,666.55 331.10,668.50 335.43,674.10 339.77,674.21 344.11,673.91 348.45,674.25 352.79,657.04 357.13,684.26 361.46,685.91 365.80,677.90 370.14,677.77 374.48,678.33 378.82,662.66 383.16,656.92 387.50,677.75 391.83,678.83 396.17,681.92 400.51,678.36 404.85,664.30 409.19,674.32 413.53,677.31 417.87,674.64 422.20,627.07 426.54,629.67 430.88,675.54 435.22,678.18 439.56,678.92 443.90,677.72 448.24,678.22 452.57,676.29 456.91,626.56 461.25,672.15 465.59,674.75 469.93,670.49 474.27,675.22 478.61,683.46 482.94,680.22 487.28,677.77 491.62,682.41 495.96,669.95 500.30,678.98 504.64,676.20 508.97,630.21 513.31,678.85 517.65,681.86 521.99,679.94 526.33,665.56 530.67,633.77 535.01,680.39 539.34,673.02 543.68,683.72 548.02,679.29 552.36,676.10 556.70,679.96 561.04,634.08 565.38,679.56 569.71,681.92 574.05,675.97 578.39,637.29 582.73,675.35 587.07,685.28 591.41,678.57 595.75,677.31 600.08,636.96 604.42,681.20 608.76,682.16 613.10,639.99 617.44,675.93 621.78,682.10 626.11,677.87 630.45,644.03 634.79,646.30 639.13,681.43 643.47,642.76 647.81,678.28 652.15,681.76 656.48,639.61 660.82,677.99 665.16,644.43 669.50,677.50 673.84,682.49 678.18,676.69 682.52,643.73 686.85,646.36 691.19,638.13 695.53,677.97 699.87,500.93 704.21,648.17 708.55,678.30 712.89,679.65 717.22,645.87 721.56,649.48 725.90,678.81 730.24,644.29 734.58,651.03 738.92,651.13 743.25,680.07 747.59,646.02 751.93,652.58 756.27,679.49 760.61,643.64 764.95,679.34 769.29,647.58 773.62,655.47 777.96,679.34 782.30,648.84 786.64,656.59 790.98,649.41 795.32,653.23 799.66,650.07 803.99,658.56 808.33,650.60 812.67,659.63 817.01,651.85 821.35,661.10 825.69,652.50 830.03,661.96 834.36,651.17 838.70,671.55 843.04,652.62 847.38,655.45 851.72,665.32 856.06,652.06 860.39,656.82 864.73,655.00 869.07,666.22 873.41,656.50 877.75,659.41 882.09,658.01 886.43,670.12 890.76,659.38 895.10,660.32 899.44,658.41 903.78,662.09 908.12,662.79 912.46,663.74 916.80,664.53 921.13,663.58 925.47,666.30 929.81,665.73 934.15,668.04 938.49,664.79 942.83,669.06 947.17,669.40 951.50,671.48 955.84,668.42 960.18,666.62 964.52,673.76 968.86,670.68 973.20,675.50 977.54,672.35 981.87,676.74 986.21,674.19 990.55,674.11 994.89,679.00 999.23,677.44 1003.57,677.05 1007.90,679.41 1012.24,677.73 1016.58,680.82 1020.92,681.84 1025.26,682.12 1029.60,682.45 1033.94,682.46 1038.27,682.55 1042.61,682.30 1046.95,683.01 1051.29,682.22 1055.63,681.89 1059.97,681.81 1064.31,681.29 1068.64,682.25 1072.98,681.45 1077.32,681.57 1081.66,681.83 1086.00,681.78 1090.34,681.99 1094.68,682.09 1099.01,682.53 1103.35,682.71 1107.69,682.77 1112.03,683.15 1116.37,681.85 1120.71,683.56 1125.04,683.92 1129.38,683.72 1133.72,683.72 1138.06,683.46 1142.40,683.50 1146.74,683.28 1151.08,683.40 1155.41,683.08 1159.75,683.24" fill="none" stroke="#D55E00" stroke-width="2.2" stroke-linejoin="round" stroke-linecap="round" clip-path="url(#clip-1)" stroke-dasharray="11 5 2 5"/>
<text x="638.0" y="784" text-anchor="middle" class="axis">Frequência (Hz)</text>
<text x="600.0" y="828" text-anchor="middle" class="footer">REW V5.31.3 · 131072 pontos · Hann · 32 médias · média energética em 1/24 de oitava</text>
</svg>